<?xml version="1.0" standalone="no"?>
<!DOCTYPE svg PUBLIC "-//W3C//DTD SVG 20010904//EN"
 "http://www.w3.org/TR/2001/REC-SVG-20010904/DTD/svg10.dtd">
<svg version="1.0" xmlns="http://www.w3.org/2000/svg"
 width="650.000000pt" height="650.000000pt" viewBox="0 0 650.000000 650.000000"
 preserveAspectRatio="xMidYMid meet">
<metadata>
Created by potrace 1.11, written by Peter Selinger 2001-2013
</metadata>
<g transform="translate(0.000000,650.000000) scale(0.100000,-0.100000)"
fill="#000000" stroke="none">
<path d="M230 4562 c-6 -2 -10 -112 -10 -303 l0 -299 23 -1 c12 0 165 -1 340
-1 248 -1 320 -3 324 -13 2 -7 5 -258 6 -557 l2 -543 814 -2 c606 -2 817 0
822 9 4 6 5 21 3 32 -2 12 -5 252 -5 534 0 357 3 517 10 526 9 11 81 13 341
13 182 0 333 3 336 6 7 7 8 586 1 593 -5 5 -2992 11 -3007 6z"/>
<path d="M3537 4558 c-13 -7 -14 -14 -6 -36 7 -17 10 -129 8 -300 -1 -158 1
-276 7 -280 5 -5 38 -14 74 -21 36 -7 69 -17 75 -22 5 -5 17 -9 26 -9 30 0
171 -62 258 -114 87 -52 189 -145 240 -220 30 -43 70 -121 76 -146 38 -161 38
-198 0 -314 -51 -155 -177 -299 -345 -393 -46 -27 -87 -48 -90 -49 -3 0 -23
-8 -45 -18 -22 -9 -53 -20 -70 -23 -16 -3 -35 -10 -41 -15 -12 -9 -19 -11 -94
-23 -68 -11 -80 -14 -103 -21 -12 -4 -755 -8 -1652 -8 l-1630 -1 -3 -301 -2
-302 39 -4 c71 -6 3583 -1 3701 6 63 4 126 9 140 11 14 3 86 7 160 10 74 3
149 7 165 10 51 8 103 15 157 20 79 8 235 35 303 51 33 8 78 18 100 21 22 3
45 9 50 13 6 4 26 11 45 15 145 31 449 156 597 246 86 52 235 166 305 232 139
133 255 334 288 496 11 54 15 324 6 340 -3 5 -8 26 -12 47 -3 21 -14 56 -23
79 -10 22 -29 65 -42 95 -29 65 -138 220 -190 270 -103 98 -229 197 -320 251
-71 42 -235 124 -290 144 -151 56 -323 114 -327 110 -3 -2 -16 2 -31 9 -14 8
-47 16 -73 19 -26 3 -55 10 -66 16 -10 5 -42 12 -72 16 -29 3 -57 8 -60 10 -4
3 -27 7 -51 10 -24 3 -55 7 -69 10 -14 3 -50 7 -80 10 -86 9 -123 14 -150 19
-14 3 -90 8 -170 11 -80 3 -199 10 -265 16 -164 14 -429 18 -448 7z"/>
</g>
</svg>
